<svg width="1013" height="229" viewBox="0 0 1013 229" fill="none" xmlns="http://www.w3.org/2000/svg">
<path d="M405.04 25.2715H384.4C384.4 18.7915 384.4 12.4315 384.4 6.07153H446.8C446.8 12.4315 446.8 18.7915 446.8 25.2715H426.28V90.0715C419.2 90.0715 412.12 90.0715 405.04 90.0715V25.2715ZM530.023 6.07153V90.0715C522.703 90.0715 515.383 90.0715 508.063 90.0715V56.3515H482.143V90.0715C474.823 90.0715 467.383 90.0715 460.183 90.0715V6.07153C467.383 6.07153 474.823 6.07153 482.143 6.07153V36.5515H508.063V6.07153C515.383 6.07153 522.703 6.07153 530.023 6.07153ZM606.744 90.0715L601.824 79.5115H568.704L563.784 90.0715H542.784V86.9515L580.584 4.99153H589.824L627.744 86.9515V90.0715H606.744ZM594.864 61.1515L585.144 39.0715L575.664 61.1515H594.864ZM645.509 25.2715H624.869C624.869 18.7915 624.869 12.4315 624.869 6.07153H687.269C687.269 12.4315 687.269 18.7915 687.269 25.2715H666.749V90.0715C659.669 90.0715 652.589 90.0715 645.509 90.0715V25.2715ZM765.092 90.1915L722.732 48.7915V90.0715C715.292 90.0715 707.852 90.0715 700.532 90.0715V5.71153H708.332L750.812 47.2315V6.07153C758.132 6.07153 765.452 6.07153 772.772 6.07153V90.1915H765.092ZM819.124 71.2315H829.804V90.0715H787.204V71.2315H797.884V24.7915H788.044V6.07153H828.964V24.7915H819.124V71.2315ZM838.812 48.0715C838.932 19.5115 860.532 5.11153 881.892 5.11153C899.292 5.11153 918.132 14.5915 921.372 37.0315C914.052 37.0315 907.572 37.0315 900.252 37.0315C897.252 28.5115 890.892 24.6715 881.892 24.6715C869.292 24.6715 861.012 34.1515 861.012 48.0715C861.012 60.4315 869.172 71.2315 881.892 71.3515C891.012 71.3515 898.332 66.7915 900.612 57.7915C907.812 57.7915 914.412 57.7915 921.732 57.7915C918.612 81.5515 899.772 90.9115 881.892 90.9115C860.532 91.0315 838.932 76.6315 838.812 48.0715ZM960.148 90.0715C952.708 90.0715 945.508 90.0715 938.308 90.0715V6.07153C945.508 6.07153 952.708 6.07153 960.148 6.07153V37.8715H961.708C983.188 37.8715 982.108 21.7915 982.108 6.07153C989.428 6.07153 996.748 6.07153 1004.19 6.07153C1004.19 23.2315 1004.67 39.0715 987.988 49.7515L1010.79 86.7115V90.0715H986.908L968.428 57.5515C965.548 58.0315 962.908 58.0315 960.148 58.0315V90.0715Z" fill="url(#paint0_linear_33_55)"/>
<path d="M23.04 134.2H2.4C2.4 127.72 2.4 121.36 2.4 115H64.8C64.8 121.36 64.8 127.72 64.8 134.2H44.28V199C37.2 199 30.12 199 23.04 199V134.2ZM148.023 115V199C140.703 199 133.383 199 126.063 199V165.28H100.143V199C92.8228 199 85.3828 199 78.1828 199V115C85.3828 115 92.8228 115 100.143 115V145.48H126.063V115C133.383 115 140.703 115 148.023 115ZM224.744 199L219.824 188.44H186.704L181.784 199H160.784V195.88L198.584 113.92H207.824L245.744 195.88V199H224.744ZM212.864 170.08L203.144 148L193.664 170.08H212.864ZM263.509 134.2H242.869C242.869 127.72 242.869 121.36 242.869 115H305.269C305.269 121.36 305.269 127.72 305.269 134.2H284.749V199C277.669 199 270.589 199 263.509 199V134.2ZM383.092 199.12L340.732 157.72V199C333.292 199 325.852 199 318.532 199V114.64H326.332L368.812 156.16V115C376.132 115 383.452 115 390.772 115V199.12H383.092ZM437.124 180.16H447.804V199H405.204V180.16H415.884V133.72H406.044V115H446.964V133.72H437.124V180.16ZM456.812 157C456.932 128.44 478.532 114.04 499.892 114.04C517.292 114.04 536.132 123.52 539.372 145.96C532.052 145.96 525.572 145.96 518.252 145.96C515.252 137.44 508.892 133.6 499.892 133.6C487.292 133.6 479.012 143.08 479.012 157C479.012 169.36 487.172 180.16 499.892 180.28C509.012 180.28 516.332 175.72 518.612 166.72C525.812 166.72 532.412 166.72 539.732 166.72C536.612 190.48 517.772 199.84 499.892 199.84C478.532 199.96 456.932 185.56 456.812 157ZM578.148 199C570.708 199 563.508 199 556.308 199V115C563.508 115 570.708 115 578.148 115V146.8H579.708C601.188 146.8 600.108 130.72 600.108 115C607.428 115 614.748 115 622.188 115C622.188 132.16 622.668 148 605.988 158.68L628.788 195.64V199H604.908L586.428 166.48C583.548 166.96 580.908 166.96 578.148 166.96V199Z" fill="url(#paint1_linear_33_55)"/>
<defs>
<linearGradient id="paint0_linear_33_55" x1="454.389" y1="-0.286441" x2="988.322" y2="39.6035" gradientUnits="userSpaceOnUse">
<stop stop-color="white"/>
<stop offset="0.454338" stop-color="white" stop-opacity="0.33"/>
<stop offset="1" stop-color="white"/>
</linearGradient>
<linearGradient id="paint1_linear_33_55" x1="72.3895" y1="108.642" x2="606.322" y2="148.532" gradientUnits="userSpaceOnUse">
<stop stop-color="white"/>
<stop offset="0.454338" stop-color="white" stop-opacity="0.33"/>
<stop offset="1" stop-color="white"/>
</linearGradient>
</defs>
</svg>
