<svg width="1161" height="160" viewBox="0 0 1161 160" fill="none" xmlns="http://www.w3.org/2000/svg">
<path d="M38.6812 38.0386H0.445963C0.445963 26.0345 0.445963 14.2527 0.445963 2.47088H116.041C116.041 14.2527 116.041 26.0345 116.041 38.0386H78.028V158.08C64.9124 158.08 51.7968 158.08 38.6812 158.08V38.0386ZM270.21 2.47088V158.08C256.65 158.08 243.09 158.08 229.529 158.08V95.6138H181.513V158.08C167.953 158.08 154.17 158.08 140.832 158.08V2.47088C154.17 2.47088 167.953 2.47088 181.513 2.47088V58.9346H229.529V2.47088C243.09 2.47088 256.65 2.47088 270.21 2.47088ZM412.335 158.08L403.221 138.517H341.866L332.752 158.08H293.85V152.3L363.874 0.470192H380.991L451.237 152.3V158.08H412.335ZM390.327 104.506L372.321 63.6029L354.76 104.506H390.327ZM484.146 38.0386H445.911C445.911 26.0345 445.911 14.2527 445.911 2.47088H561.506C561.506 14.2527 561.506 26.0345 561.506 38.0386H523.493V158.08C510.377 158.08 497.261 158.08 484.146 158.08V38.0386ZM705.671 158.302L627.2 81.609V158.08C613.417 158.08 599.635 158.08 586.075 158.08V1.80399H600.524L679.218 78.7191V2.47088C692.778 2.47088 706.338 2.47088 719.898 2.47088V158.302H705.671ZM805.766 123.179H825.551V158.08H746.635V123.179H766.419V37.1494H748.191V2.47088H823.995V37.1494H805.766V123.179ZM842.237 80.2752C842.459 27.3683 882.473 0.6925 922.042 0.6925C954.275 0.6925 989.176 18.2541 995.178 59.8238C981.618 59.8238 969.614 59.8238 956.054 59.8238C950.496 44.0406 938.714 36.9271 922.042 36.9271C898.701 36.9271 883.362 54.4886 883.362 80.2752C883.362 103.172 898.478 123.179 922.042 123.401C938.937 123.401 952.497 114.954 956.72 98.2814C970.058 98.2814 982.285 98.2814 995.845 98.2814C990.065 142.296 955.164 159.636 922.042 159.636C882.473 159.858 842.459 133.182 842.237 80.2752ZM1067.01 158.08C1053.23 158.08 1039.89 158.08 1026.55 158.08V2.47088C1039.89 2.47088 1053.23 2.47088 1067.01 2.47088V61.3799H1069.9C1109.69 61.3799 1107.69 31.5919 1107.69 2.47088C1121.25 2.47088 1134.81 2.47088 1148.59 2.47088C1148.59 34.2595 1149.48 63.6029 1118.58 83.3874L1160.82 151.855V158.08H1116.58L1082.35 97.8368C1077.01 98.726 1072.12 98.726 1067.01 98.726V158.08Z" fill="url(#paint0_linear_1_2)"/>
<defs>
<linearGradient id="paint0_linear_1_2" x1="129.995" y1="-9.58268" x2="1118.31" y2="64.2954" gradientUnits="userSpaceOnUse">
<stop stop-color="white"/>
<stop offset="0.454338" stop-color="white" stop-opacity="0.33"/>
<stop offset="1" stop-color="white"/>
</linearGradient>
</defs>
</svg>
