<svg width="30" height="29" viewBox="0 0 30 29" fill="none" xmlns="http://www.w3.org/2000/svg">
<path d="M16.6169 0.490825C17.6552 0.486841 18.6935 0.497276 19.7315 0.522127L20.0075 0.532087C20.3262 0.543469 20.6406 0.557697 21.0205 0.574771C22.5344 0.645911 23.5673 0.884943 24.4737 1.23638C25.4127 1.59777 26.2038 2.08721 26.9949 2.87829C27.7182 3.58913 28.278 4.44899 28.6354 5.39808C28.9868 6.30441 29.2258 7.33879 29.297 8.85265C29.314 9.23112 29.3283 9.54698 29.3397 9.86569L29.3482 10.1417C29.3735 11.1792 29.3844 12.217 29.3809 13.2548L29.3823 14.3162V16.1801C29.3859 17.2184 29.3749 18.2566 29.3496 19.2946L29.3411 19.5706C29.3297 19.8894 29.3155 20.2038 29.2984 20.5837C29.2273 22.0975 28.9854 23.1305 28.6354 24.0368C28.2792 24.9869 27.7192 25.8475 26.9949 26.558C26.2834 27.2813 25.4231 27.8411 24.4737 28.1985C23.5673 28.55 22.5344 28.789 21.0205 28.8601C20.6406 28.8772 20.3262 28.8914 20.0075 28.9028L19.7315 28.9114C18.6935 28.9366 17.6552 28.9476 16.6169 28.9441L15.5555 28.9455H13.6931C12.6548 28.949 11.6165 28.9381 10.5785 28.9128L10.3025 28.9042C9.96476 28.892 9.62708 28.8778 9.28948 28.8616C7.77562 28.7904 6.74266 28.5485 5.83491 28.1985C4.88545 27.8419 4.02544 27.282 3.31513 26.558C2.59098 25.847 2.03065 24.9866 1.67321 24.0368C1.32178 23.1305 1.08274 22.0975 1.0116 20.5837C0.995758 20.2461 0.98153 19.9084 0.96892 19.5706L0.961806 19.2946C0.935575 18.2567 0.923717 17.2184 0.926236 16.1801V13.2548C0.922265 12.217 0.9327 11.1792 0.957538 10.1417L0.967497 9.86569C0.97888 9.54698 0.993108 9.23112 1.01018 8.85265C1.08132 7.33736 1.32035 6.30583 1.67179 5.39808C2.02944 4.44853 2.59087 3.58891 3.31655 2.87972C4.02638 2.15515 4.88585 1.59431 5.83491 1.23638C6.74266 0.884943 7.7742 0.645911 9.28948 0.574771L10.3025 0.532087L10.5785 0.524973C11.616 0.498755 12.6538 0.486897 13.6916 0.489403L16.6169 0.490825ZM15.1543 7.60485C14.2117 7.59152 13.2758 7.76566 12.4011 8.11716C11.5264 8.46865 10.7303 8.99049 10.059 9.65234C9.38772 10.3142 8.85468 11.1029 8.49085 11.9725C8.12702 12.8422 7.93966 13.7755 7.93966 14.7182C7.93966 15.6609 8.12702 16.5942 8.49085 17.4638C8.85468 18.3335 9.38772 19.1221 10.059 19.784C10.7303 20.4458 11.5264 20.9677 12.4011 21.3192C13.2758 21.6707 14.2117 21.8448 15.1543 21.8315C17.041 21.8315 18.8505 21.082 20.1847 19.7478C21.5188 18.4137 22.2683 16.6042 22.2683 14.7175C22.2683 12.8307 21.5188 11.0212 20.1847 9.68708C18.8505 8.35294 17.041 7.60485 15.1543 7.60485ZM15.1543 10.4505C15.7213 10.44 16.2847 10.5427 16.8116 10.7524C17.3385 10.9621 17.8183 11.2748 18.223 11.672C18.6277 12.0693 18.9492 12.5432 19.1687 13.0661C19.3881 13.589 19.5012 14.1503 19.5013 14.7174C19.5014 15.2845 19.3885 15.846 19.1692 16.3689C18.9499 16.8919 18.6286 17.3659 18.224 17.7633C17.8194 18.1607 17.3397 18.4735 16.8129 18.6834C16.2861 18.8933 15.7227 18.9961 15.1557 18.9859C14.0237 18.9859 12.938 18.5362 12.1375 17.7357C11.337 16.9352 10.8873 15.8495 10.8873 14.7175C10.8873 13.5854 11.337 12.4997 12.1375 11.6992C12.938 10.8987 14.0237 10.449 15.1557 10.449L15.1543 10.4505ZM22.624 5.47064C22.165 5.48901 21.7309 5.68428 21.4126 6.01554C21.0944 6.3468 20.9166 6.78835 20.9166 7.24773C20.9166 7.7071 21.0944 8.14866 21.4126 8.47992C21.7309 8.81118 22.165 9.00644 22.624 9.02481C23.0957 9.02481 23.5481 8.83743 23.8816 8.5039C24.2151 8.17036 24.4025 7.71799 24.4025 7.2463C24.4025 6.77461 24.2151 6.32224 23.8816 5.98871C23.5481 5.65518 23.0957 5.4678 22.624 5.4678V5.47064Z" fill="white"/>
</svg>
