<svg width="26" height="27" viewBox="0 0 26 27" fill="none" xmlns="http://www.w3.org/2000/svg">
<path d="M24.1178 26.5235C21.1535 26.5235 18.2247 25.8771 15.3315 24.5841C12.4383 23.2912 9.806 21.4595 7.43454 19.089C5.06308 16.7175 3.23136 14.0852 1.93938 11.192C0.647409 8.29882 0.000948585 5.37006 0 2.40574C0 1.97887 0.142288 1.62315 0.426863 1.33858C0.711439 1.054 1.06716 0.911713 1.49402 0.911713H7.25668C7.58868 0.911713 7.88512 1.02459 8.14598 1.25036C8.40684 1.47612 8.56098 1.74267 8.60841 2.05002L9.53328 7.03009C9.58071 7.40952 9.56886 7.72967 9.49771 7.99053C9.42657 8.25139 9.29614 8.47668 9.10642 8.6664L5.65594 12.1524C6.13023 13.0299 6.69322 13.8775 7.3449 14.6951C7.99657 15.5128 8.71418 16.3016 9.49771 17.0614C10.2329 17.7965 11.0036 18.4786 11.8099 19.1075C12.6162 19.7364 13.4699 20.3112 14.3711 20.832L17.7148 17.4882C17.9283 17.2748 18.2071 17.1145 18.5515 17.0073C18.8958 16.9001 19.2335 16.8707 19.5646 16.9191L24.4735 17.9151C24.8055 18.01 25.0782 18.1821 25.2917 18.4316C25.5051 18.6811 25.6118 18.9595 25.6118 19.2668V25.0295C25.6118 25.4564 25.4695 25.8121 25.1849 26.0967C24.9004 26.3812 24.5446 26.5235 24.1178 26.5235Z" fill="white"/>
</svg>
